<?xml version="1.0" encoding="UTF-8" standalone="no"?>
<!-- Created with Inkscape (http://www.inkscape.org/) -->

<svg
   version="1.1"
   id="svg298"
   width="650"
   height="200"
   viewBox="0 0 650 200"
   sodipodi:docname="Adler-dark.svg"
   inkscape:version="1.2.2 (732a01da63, 2022-12-09)"
   xmlns:inkscape="http://www.inkscape.org/namespaces/inkscape"
   xmlns:sodipodi="http://sodipodi.sourceforge.net/DTD/sodipodi-0.dtd"
   xmlns="http://www.w3.org/2000/svg"
   xmlns:svg="http://www.w3.org/2000/svg">
  <defs
     id="defs302">
    <clipPath
       clipPathUnits="userSpaceOnUse"
       id="clipPath314">
      <path
         d="M 0,0 H 1562.5 V 1593.75 H 0 Z"
         clip-rule="evenodd"
         id="path312" />
    </clipPath>
    <clipPath
       clipPathUnits="userSpaceOnUse"
       id="clipPath326">
      <path
         d="m 0,450 h 1562.5 v 662.5 H 0 Z"
         clip-rule="evenodd"
         id="path324" />
    </clipPath>
    <clipPath
       clipPathUnits="userSpaceOnUse"
       id="clipPath346">
      <path
         d="M 56.025742,506.49619 H 618.6992 V 1057.7332 H 56.025742 Z"
         clip-rule="evenodd"
         id="path344" />
    </clipPath>
  </defs>
  <sodipodi:namedview
     id="namedview300"
     pagecolor="#ffffff"
     bordercolor="#000000"
     borderopacity="0.25"
     inkscape:showpageshadow="2"
     inkscape:pageopacity="0.0"
     inkscape:pagecheckerboard="0"
     inkscape:deskcolor="#d1d1d1"
     showgrid="false"
     inkscape:zoom="0.804"
     inkscape:cx="64.676617"
     inkscape:cy="148.63184"
     inkscape:window-width="1920"
     inkscape:window-height="991"
     inkscape:window-x="-9"
     inkscape:window-y="-9"
     inkscape:window-maximized="1"
     inkscape:current-layer="g306">
    <inkscape:page
       x="0"
       y="0"
       id="page304"
       width="650"
       height="200" />
  </sodipodi:namedview>
  <g
     id="g306"
     inkscape:groupmode="layer"
     inkscape:label="Page 1"
     transform="matrix(0.31999998,0,0,0.31999998,0,9.434666e-6)">
    <g
       id="g328"
       transform="matrix(3.9872918,0,0,3.9872918,653.65201,277.61664)"
       style="fill:#3b5cbb;fill-opacity:1">
      <g
         aria-label="ADLER"
         transform="matrix(2,0,0,2,-0.56238283,39)"
         id="text332"
         style="font-weight:bold;font-size:47.99px;font-family:LeagueSpartan;-inkscape-font-specification:LeagueSpartan-Bold;fill:#3b5cbb;fill-opacity:1">
        <path
           d="M 36.69548,0 H 27.39273 L 24.979171,-7.053218 H 12.044366 L 9.630806,0 H 0.56238283 L 13.450323,-34.891168 H 23.80754 Z m -13.895543,-13.450323 -4.288169,-12.513018 -4.288169,12.513018 z"
           id="path3393"
           style="fill:#3b5cbb;fill-opacity:1" />
        <path
           d="m 75.041627,-17.410435 q 0,4.873984 -2.226099,8.7403663 -2.226099,3.8429494 -5.623828,5.9050198 -2.554156,1.5465528 -5.600396,2.15580083 Q 58.545064,0 54.374058,0 H 42.071933 v -34.891168 h 12.653614 q 4.264736,0 7.357842,0.726411 3.093105,0.702978 5.202041,2.015205 3.608623,2.202666 5.670694,5.951885 2.085503,3.725786 2.085503,8.787232 z m -9.30275,-0.0703 q 0,-3.444595 -1.265361,-5.881587 -1.241929,-2.460425 -3.960112,-3.84295 -1.382525,-0.679545 -2.835347,-0.913872 -1.42939,-0.257758 -4.335035,-0.257758 h -2.272964 v 21.8391996 h 2.272964 q 3.210269,0 4.709957,-0.2811914 1.499687,-0.3046241 2.929077,-1.0779005 2.460425,-1.405957 3.608623,-3.7492187 1.148198,-2.366695 1.148198,-5.834722 z"
           id="path3395"
           style="fill:#3b5cbb;fill-opacity:1" />
        <path
           d="M 102.65103,0 H 77.484393 v -34.891168 h 8.998126 v 28.142574 h 16.168511 z"
           id="path3397"
           style="fill:#3b5cbb;fill-opacity:1" />
        <path
           d="m 129.83248,0 h -25.23693 v -34.891168 h 25.23693 v 6.748594 h -16.28567 v 6.022183 h 15.11404 v 6.748594 h -15.11404 v 8.623203 h 16.28567 z"
           id="path3399"
           style="fill:#3b5cbb;fill-opacity:1" />
        <path
           d="m 151.99272,-24.205894 q 0,-1.312227 -0.53895,-2.249532 -0.53895,-0.937304 -1.85117,-1.476255 -0.91388,-0.374922 -2.13237,-0.445219 -1.2185,-0.09373 -2.83535,-0.09373 h -3.25713 v 9.39648 h 2.76505 q 2.1558,0 3.60862,-0.210894 1.45282,-0.210893 2.43699,-0.960737 0.93731,-0.726411 1.35909,-1.593418 0.44522,-0.890439 0.44522,-2.366694 z M 166.02886,0 h -10.9899 l -9.51364,-12.794209 h -4.14757 V 0 h -8.95126 v -34.891168 h 15.0906 q 3.09311,0 5.31921,0.351489 2.2261,0.351489 4.171,1.52312 1.96834,1.171631 3.11654,3.046241 1.17163,1.851176 1.17163,4.663091 0,3.866382 -1.80431,6.303374 -1.78088,2.436992 -5.10831,4.053843 z"
           id="path3401"
           style="fill:#3b5cbb;fill-opacity:1" />
      </g>
      <g
         aria-label="GEBAEUDE REINIGUNG"
         transform="matrix(1.5962068,0,0,1.5962068,-0.93366864,63.609341)"
         id="text338"
         style="font-size:17.33px;font-family:Montserrat;-inkscape-font-specification:Montserrat-Regular;fill:#3b5cbb;fill-opacity:1">
        <path
           d="m 12.20208,-0.93081054 q -1.032353,0.47386718 -2.259331,0.82926757 -1.2185156,0.34693848 -2.360874,0.34693848 -1.4723731,0 -2.6993506,-0.40617188 Q 3.6555469,-0.56694824 2.7924316,-1.379292 1.9208545,-2.2000976 1.4469873,-3.4270752 0.97312011,-4.6625146 0.97312011,-6.3125879 q 0,-3.0209033 1.76007809,-4.7640571 1.7685401,-1.751617 4.8486768,-1.751617 1.074663,0 2.1916357,0.26232 1.1254343,0.253857 2.4201073,0.871577 v 1.9885496 h -0.152314 q -0.26232,-0.2030859 -0.761573,-0.5331006 -0.499253,-0.330015 -0.981582,-0.550024 -0.5838717,-0.26232 -1.3285201,-0.431558 -0.7361866,-0.1777 -1.675459,-0.1777 -2.1154785,0 -3.350918,1.362368 -1.2269775,1.3539062 -1.2269775,3.6724707 0,2.4454931 1.2862109,3.8078613 1.286211,1.3539062 3.5032324,1.3539062 0.8123438,0 1.6162256,-0.1607764 0.8123438,-0.1607763 1.4216017,-0.4146337 V -4.8656006 H 7.1672412 v -1.472373 H 12.20208 Z"
           id="path3404"
           style="fill:#3b5cbb;fill-opacity:1" />
        <path
           d="m 23.388082,0 h -8.301137 v -12.59979 h 8.301137 v 1.489297 h -6.625678 v 3.4524608 h 6.625678 v 1.4892969 h -6.625678 v 4.6794384 h 6.625678 z"
           id="path3406"
           style="fill:#3b5cbb;fill-opacity:1" />
        <path
           d="m 36.182127,-3.8755566 q 0,0.9392724 -0.3554,1.6585351 -0.355401,0.7192627 -0.956197,1.184668 -0.7108,0.55848631 -1.565454,0.79541991 Q 32.458885,0 31.147288,0 h -4.46789 v -12.59979 h 3.731704 q 1.379292,0 2.064707,0.101543 0.685415,0.101543 1.311596,0.423096 0.693877,0.363862 1.006968,0.939272 0.313091,0.566948 0.313091,1.3623683 0,0.8969629 -0.456943,1.5316064 -0.456944,0.6261817 -1.218516,1.0069678 v 0.067695 q 1.277749,0.2623194 2.013936,1.1254346 0.736186,0.8546533 0.736186,2.1662503 z M 33.36431,-9.5535009 q 0,-0.4569431 -0.152315,-0.7700341 -0.152314,-0.313091 -0.490791,-0.507715 -0.39771,-0.228472 -0.964658,-0.279243 -0.566948,-0.05923 -1.404678,-0.05923 h -1.997011 v 3.6386235 h 2.16625 q 0.786958,0 1.252363,-0.076157 0.465405,-0.084619 0.863115,-0.3384766 0.39771,-0.2538574 0.558486,-0.6515673 0.169239,-0.4061719 0.169239,-0.9561963 z m 1.074663,5.7456396 q 0,-0.7615723 -0.228472,-1.2100537 -0.228472,-0.4484815 -0.829268,-0.7615723 -0.406171,-0.2115478 -0.990043,-0.2707812 -0.575411,-0.067695 -1.404678,-0.067695 h -2.631655 v 4.6879003 h 2.217021 q 1.100049,0 1.802388,-0.1100049 0.702339,-0.1184667 1.15082,-0.4230957 0.473867,-0.3300146 0.693877,-0.7531103 0.22001,-0.4230957 0.22001,-1.0915872 z"
           id="path3408"
           style="fill:#3b5cbb;fill-opacity:1" />
        <path
           d="m 49.679008,0 h -1.785464 l -1.23544,-3.5116943 H 41.208632 L 39.973192,0 h -1.700845 l 4.586358,-12.59979 h 2.233945 z m -3.537081,-4.9502197 -2.208559,-6.1856593 -2.217022,6.1856593 z"
           id="path3410"
           style="fill:#3b5cbb;fill-opacity:1" />
        <path
           d="m 60.470052,0 h -8.301137 v -12.59979 h 8.301137 v 1.489297 h -6.625678 v 3.4524608 h 6.625678 v 1.4892969 h -6.625678 v 4.6794384 h 6.625678 z"
           id="path3412"
           style="fill:#3b5cbb;fill-opacity:1" />
        <path
           d="m 73.247173,-5.0602246 q 0,1.3708301 -0.304628,2.3947217 -0.296167,1.0154297 -0.981583,1.69238279 -0.651567,0.64310546 -1.523144,0.93927245 -0.871577,0.29616699 -2.030859,0.29616699 -1.184668,0 -2.064707,-0.31309081 Q 65.462213,-0.3638623 64.861417,-0.97312011 64.176002,-1.6669971 63.871373,-2.6485791 63.575206,-3.6301611 63.575206,-5.0602246 V -12.59979 h 1.675459 v 7.6241846 q 0,1.0238916 0.13539,1.6162255 0.143853,0.592334 0.473867,1.0746631 0.372325,0.5500244 1.006968,0.8292676 0.643106,0.2792432 1.540069,0.2792432 0.905424,0 1.540068,-0.2707813 0.634643,-0.2792432 1.01543,-0.8377295 0.330014,-0.4823291 0.465405,-1.1000488 0.143852,-0.6261816 0.143852,-1.5485303 V -12.59979 h 1.675459 z"
           id="path3414"
           style="fill:#3b5cbb;fill-opacity:1" />
        <path
           d="m 88.130256,-6.2872021 q 0,1.7177685 -0.75311,3.1139843 -0.744648,1.3962159 -1.98855,2.16625 -0.863115,0.53310061 -1.929316,0.77003421 Q 82.40154,0 80.666848,0 h -3.18168 V -12.59979 H 80.633 q 1.844698,0 2.927823,0.270781 1.091587,0.26232 1.844697,0.727725 1.286211,0.803882 2.005474,2.1408641 0.719262,1.3369824 0.719262,3.1732178 z m -1.751616,-0.025386 q 0,-1.4808349 -0.516177,-2.4962646 -0.516176,-1.0154297 -1.540068,-1.5993013 -0.744648,-0.423096 -1.582378,-0.583872 -0.837729,-0.169239 -2.005474,-0.169239 h -1.573916 v 9.7227394 h 1.573916 q 1.210054,0 2.107017,-0.1777002 0.905425,-0.1777002 1.658535,-0.6600293 0.939273,-0.6007959 1.404678,-1.5823779 0.473867,-0.981582 0.473867,-2.4539551 z"
           id="path3416"
           style="fill:#3b5cbb;fill-opacity:1" />
        <path
           d="m 100.09925,0 h -8.301139 v -12.59979 h 8.301139 v 1.489297 h -6.62568 v 3.4524608 h 6.62568 v 1.4892969 h -6.62568 v 4.6794384 h 6.62568 z"
           id="path3418"
           style="fill:#3b5cbb;fill-opacity:1" />
        <path
           d="m 118.35559,0 h -2.17471 l -4.21404,-5.0094531 h -2.36087 V 0 h -1.67546 v -12.59979 h 3.52862 q 1.14236,0 1.90393,0.152314 0.76157,0.143853 1.37083,0.524639 0.68542,0.431558 1.0662,1.091587 0.38925,0.651567 0.38925,1.6585352 0,1.3623682 -0.68542,2.2847168 -0.68541,0.9138867 -1.887,1.379292 z m -3.91787,-9.054248 q 0,-0.5415625 -0.19462,-0.956196 -0.18616,-0.423096 -0.62618,-0.710801 -0.36386,-0.245396 -0.86312,-0.338477 -0.49925,-0.101543 -1.1762,-0.101543 h -1.97163 v 4.7555961 h 1.69238 q 0.79542,0 1.38776,-0.1353906 0.59233,-0.1438526 1.00696,-0.5246387 0.38079,-0.3554004 0.55849,-0.8123438 0.18616,-0.4654052 0.18616,-1.176206 z"
           id="path3420"
           style="fill:#3b5cbb;fill-opacity:1" />
        <path
           d="m 128.75982,0 h -8.30114 v -12.59979 h 8.30114 v 1.489297 h -6.62568 v 3.4524608 h 6.62568 v 1.4892969 h -6.62568 v 4.6794384 h 6.62568 z"
           id="path3422"
           style="fill:#3b5cbb;fill-opacity:1" />
        <path
           d="m 136.49364,0 h -4.97561 v -1.2862109 h 1.65007 V -11.313579 h -1.65007 v -1.286211 h 4.97561 v 1.286211 h -1.65008 v 10.0273681 h 1.65008 z"
           id="path3424"
           style="fill:#3b5cbb;fill-opacity:1" />
        <path
           d="m 146.89693,0 h -2.07317 l -5.97411,-11.271269 V 0 h -1.56546 v -12.59979 h 2.59781 l 5.44948,10.2896875 V -12.59979 h 1.56545 z"
           id="path3426"
           style="fill:#3b5cbb;fill-opacity:1" />
        <path
           d="m 155.81438,0 h -4.97561 v -1.2862109 h 1.65007 V -11.313579 h -1.65007 v -1.286211 h 4.97561 v 1.286211 h -1.65008 v 10.0273681 h 1.65008 z"
           id="path3428"
           style="fill:#3b5cbb;fill-opacity:1" />
        <path
           d="m 167.11463,-0.93081054 q -1.03235,0.47386718 -2.25933,0.82926757 -1.21851,0.34693848 -2.36087,0.34693848 -1.47238,0 -2.69935,-0.40617188 -1.22698,-0.40617187 -2.0901,-1.21851563 -0.87157,-0.8208056 -1.34544,-2.0477832 -0.47387,-1.2354394 -0.47387,-2.8855127 0,-3.0209033 1.76008,-4.7640571 1.76854,-1.751617 4.84868,-1.751617 1.07466,0 2.19163,0.26232 1.12544,0.253857 2.42011,0.871577 v 1.9885496 h -0.15231 q -0.26232,-0.2030859 -0.76158,-0.5331006 -0.49925,-0.330015 -0.98158,-0.550024 -0.58387,-0.26232 -1.32852,-0.431558 -0.73619,-0.1777 -1.67546,-0.1777 -2.11548,0 -3.35092,1.362368 -1.22697,1.3539062 -1.22697,3.6724707 0,2.4454931 1.28621,3.8078613 1.28621,1.3539062 3.50323,1.3539062 0.81234,0 1.61623,-0.1607764 0.81234,-0.1607763 1.4216,-0.4146337 v -3.0885987 h -3.37631 v -1.472373 h 5.03484 z"
           id="path3430"
           style="fill:#3b5cbb;fill-opacity:1" />
        <path
           d="m 179.4853,-5.0602246 q 0,1.3708301 -0.30463,2.3947217 -0.29616,1.0154297 -0.98158,1.69238279 -0.65157,0.64310546 -1.52314,0.93927245 -0.87158,0.29616699 -2.03086,0.29616699 -1.18467,0 -2.06471,-0.31309081 -0.88004,-0.31309082 -1.48083,-0.92234863 -0.68542,-0.69387699 -0.99005,-1.67545899 -0.29617,-0.981582 -0.29617,-2.4116455 V -12.59979 h 1.67546 v 7.6241846 q 0,1.0238916 0.13539,1.6162255 0.14386,0.592334 0.47387,1.0746631 0.37233,0.5500244 1.00697,0.8292676 0.6431,0.2792432 1.54007,0.2792432 0.90542,0 1.54007,-0.2707813 0.63464,-0.2792432 1.01543,-0.8377295 0.33001,-0.4823291 0.4654,-1.1000488 0.14385,-0.6261816 0.14385,-1.5485303 V -12.59979 h 1.67546 z"
           id="path3432"
           style="fill:#3b5cbb;fill-opacity:1" />
        <path
           d="m 193.33603,0 h -2.07317 l -5.97411,-11.271269 V 0 h -1.56545 v -12.59979 h 2.5978 l 5.44948,10.2896875 V -12.59979 h 1.56545 z"
           id="path3434"
           style="fill:#3b5cbb;fill-opacity:1" />
        <path
           d="m 208.32067,-0.93081054 q -1.03235,0.47386718 -2.25933,0.82926757 -1.21852,0.34693848 -2.36087,0.34693848 -1.47238,0 -2.69935,-0.40617188 -1.22698,-0.40617187 -2.0901,-1.21851563 -0.87157,-0.8208056 -1.34544,-2.0477832 -0.47387,-1.2354394 -0.47387,-2.8855127 0,-3.0209033 1.76008,-4.7640571 1.76854,-1.751617 4.84868,-1.751617 1.07466,0 2.19163,0.26232 1.12544,0.253857 2.42011,0.871577 v 1.9885496 h -0.15232 q -0.26231,-0.2030859 -0.76157,-0.5331006 -0.49925,-0.330015 -0.98158,-0.550024 -0.58387,-0.26232 -1.32852,-0.431558 -0.73619,-0.1777 -1.67546,-0.1777 -2.11548,0 -3.35092,1.362368 -1.22697,1.3539062 -1.22697,3.6724707 0,2.4454931 1.28621,3.8078613 1.28621,1.3539062 3.50323,1.3539062 0.81234,0 1.61622,-0.1607764 0.81235,-0.1607763 1.42161,-0.4146337 v -3.0885987 h -3.37631 v -1.472373 h 5.03484 z"
           id="path3436"
           style="fill:#3b5cbb;fill-opacity:1" />
      </g>
    </g>
    <g
       id="g340"
       transform="translate(-3.8868162,-470.30476)">
      <g
         id="g342"
         clip-path="url(#clipPath346)">
        <g
           id="g348"
           transform="matrix(0.56358171,0,0,0.5628314,-226.19102,219.28333)">
          <path
             d="m 829.5,959.89063 c -4.60937,66.73827 -8.34375,70.48047 -75.08984,75.08987 66.74609,4.5976 70.48047,8.3398 75.08984,75.0781 4.60547,-66.7383 8.34375,-70.4805 75.08984,-75.0781 -66.74609,-4.6094 -70.48437,-8.3516 -75.08984,-75.08987"
             style="fill:#80cc28;fill-opacity:1;fill-rule:nonzero;stroke:none"
             id="path350" />
          <path
             d="m 894.53516,889.78125 c -2.42188,35.08984 -4.38672,37.04688 -39.47657,39.46875 35.08985,2.42969 37.05469,4.39063 39.47657,39.48047 2.42578,-35.08984 4.39062,-37.05078 39.48047,-39.48047 -35.08985,-2.42187 -37.05469,-4.37891 -39.48047,-39.46875"
             style="fill:#80cc28;fill-opacity:1;fill-rule:nonzero;stroke:none"
             id="path352" />
          <path
             d="m 815.58203,820.26172 c -2.42187,35.08984 -4.38672,37.04687 -39.47656,39.46875 35.08984,2.42969 37.05469,4.39062 39.47656,39.48047 2.42188,-35.08985 4.38672,-37.05078 39.47656,-39.48047 -35.08984,-2.42188 -37.05468,-4.37891 -39.47656,-39.46875"
             style="fill:#80cc28;fill-opacity:1;fill-rule:nonzero;stroke:none"
             id="path354" />
          <path
             d="m 889.33594,803.76172 c -1.10547,16.01953 -2,16.91797 -18.02735,18.01953 16.02735,1.10938 16.92188,2.00781 18.02735,18.02734 1.10547,-16.01953 2.0039,-16.91796 18.02734,-18.02734 -16.02344,-1.10156 -16.92187,-2 -18.02734,-18.01953"
             style="fill:#80cc28;fill-opacity:1;fill-rule:nonzero;stroke:none"
             id="path356" />
          <path
             d="m 776.07422,918.32031 c -1.33203,19.25 -2.40625,20.32813 -21.66406,21.66016 19.25781,1.32812 20.33203,2.41016 21.66406,21.66016 1.32812,-19.25 2.40625,-20.33204 21.66016,-21.66016 -19.25391,-1.33203 -20.33204,-2.41016 -21.66016,-21.66016"
             style="fill:#80cc28;fill-opacity:1;fill-rule:nonzero;stroke:none"
             id="path358" />
          <path
             d="m 955.67578,828 c -1.32812,19.25 -2.40625,20.32813 -21.66015,21.66016 19.2539,1.32812 20.33203,2.41015 21.66015,21.66015 1.33203,-19.25 2.41016,-20.33203 21.66406,-21.66015 C 958.08594,848.32813 957.00781,847.25 955.67578,828"
             style="fill:#80cc28;fill-opacity:1;fill-rule:nonzero;stroke:none"
             id="path360" />
          <path
             d="m 1128.2891,1044.9883 c -2.3203,-33.5781 -4.1993,-35.4571 -37.7696,-37.7695 33.5703,-2.3204 35.4493,-4.1993 37.7696,-37.76958 2.3203,33.57028 4.1992,35.44918 37.7695,37.76958 -33.5703,2.3124 -35.4492,4.1914 -37.7695,37.7695 z m -58.0078,-50.80861 c -3.3204,-48.17969 -6.0196,-50.8711 -54.2032,-54.19922 48.1836,-3.32031 50.8828,-6.01953 54.2032,-54.19922 3.3281,48.17969 6.0195,50.87891 54.1992,54.19922 -48.1797,3.32812 -50.8711,6.01953 -54.1992,54.19922 z m -65.0821,57.62111 c -2.3906,-34.5313 -4.3203,-36.461 -38.85154,-38.8516 34.53124,-2.3789 36.46094,-4.3203 38.85154,-38.84764 2.3789,34.52734 4.3125,36.46874 38.8516,38.84764 -34.5391,2.3906 -36.4727,4.3203 -38.8516,38.8516 z m 18.9727,-188.08205 c 1.1679,16.87109 2.1094,17.8125 18.9765,18.98047 -16.8671,1.16016 -17.8086,2.10937 -18.9765,18.97266 -1.1602,-16.86329 -2.1133,-17.8125 -18.9727,-18.97266 16.8594,-1.16797 17.8125,-2.10938 18.9727,-18.98047 z m 31.9179,-41.9375 c 1.1602,16.86719 2.1094,17.80859 18.9688,18.98047 -16.8594,1.16016 -17.8086,2.10937 -18.9688,18.96875 -1.1601,-16.85938 -2.1093,-17.80859 -18.9687,-18.96875 16.8594,-1.17188 17.8086,-2.11328 18.9687,-18.98047 z M 1213.5,1064 1060.7305,704.98047 907.96875,1064 c -46.59375,109.5 33.76172,231.0195 152.76175,231.0195 h 0.01 c 119,0 199.3515,-121.5195 152.7617,-231.0195"
             style="fill:#3b5cbb;fill-opacity:1;fill-rule:nonzero;stroke:none"
             id="path362" />
          <path
             d="m 990.62891,1489.6992 c 139.24219,0 264.90239,-58.1211 354.06249,-151.4101 -74.9531,60.9297 -170.5312,97.4726 -274.6523,97.4726 -240.66801,0 -435.76176,-195.1015 -435.76176,-435.7617 0,-240.66016 195.09375,-435.76172 435.76176,-435.76172 104.1211,0 199.6992,36.54297 274.6523,97.47266 -89.1601,-93.28906 -214.8203,-151.41016 -354.06249,-151.41016 -270.45313,0 -489.69922,219.25 -489.69922,489.69922 0,270.4492 219.24609,489.6992 489.69922,489.6992"
             style="fill:#80cc28;fill-opacity:1;fill-rule:nonzero;stroke:none"
             id="path364" />
          <path
             d="m 1090.6797,591.60938 c -116.1172,0 -220.91017,48.46875 -295.26954,126.26953 62.50781,-50.8086 142.21484,-81.28907 229.05074,-81.28907 200.6993,0 363.3985,162.71094 363.3985,363.41016 0,200.6992 -162.6992,363.3984 -363.3985,363.3984 -86.8359,0 -166.54293,-30.4687 -229.05074,-81.2773 74.35937,77.8008 179.15234,126.2695 295.26954,126.2695 225.5508,0 408.3906,-182.8398 408.3906,-408.3906 0,-225.55078 -182.8398,-408.39062 -408.3906,-408.39062"
             style="display:inline;fill:#3b5cbb;fill-opacity:1;fill-rule:nonzero;stroke:none"
             id="path366" />
        </g>
      </g>
    </g>
  </g>
</svg>
